<svg width="124" height="101" viewBox="0 0 124 101" fill="none" xmlns="http://www.w3.org/2000/svg">
<path d="M36.8329 62.5906C35.084 60.2165 34.0526 57.3383 34.0526 54.23C34.0526 51.1214 35.0838 48.2432 36.8326 45.8693C33.9794 41.8934 29.1491 39.2793 23.6701 39.2793C23.1102 39.2793 22.5575 39.308 22.0126 39.3612C19.3466 43.7472 17.8008 48.8141 17.8008 54.2302C17.8008 59.6461 19.3466 64.7132 22.0126 69.099C22.5575 69.1522 23.1102 69.1809 23.6701 69.1809C29.1493 69.1809 33.9799 66.5668 36.8329 62.5906Z" fill="#564A47"/>
<path d="M62.4785 45.8691C64.2273 48.2435 65.2588 51.1217 65.2588 54.23C65.2588 57.3385 64.2273 60.2167 62.4785 62.5911C65.3315 66.5668 70.1623 69.1809 75.6413 69.1809C76.2012 69.1809 76.7538 69.1522 77.2988 69.099C79.9647 64.713 81.5106 59.6461 81.5106 54.2302C81.5106 48.8144 79.9647 43.7472 77.2988 39.3612C76.7538 39.308 76.2012 39.2793 75.6413 39.2793C70.1621 39.2793 65.3315 41.8931 62.4785 45.8691Z" fill="#564A47"/>
<path d="M40.7767 42.1566C43.2976 40.5094 46.3538 39.5382 49.6545 39.5382C52.955 39.5382 56.0114 40.5094 58.5323 42.1564C62.754 39.4694 65.5297 34.9202 65.5297 29.76C65.5297 29.2327 65.4992 28.7122 65.4425 28.1988C60.7855 25.6883 55.4052 24.2324 49.6545 24.2324C43.9038 24.2324 38.5235 25.6881 33.8665 28.199C33.8098 28.7125 33.7793 29.2327 33.7793 29.76C33.7793 34.9202 36.555 39.4696 40.7767 42.1566Z" fill="#564A47"/>
<path d="M36.8328 45.8711C35.084 48.2452 34.0527 51.1234 34.0527 54.2317C34.0527 57.3403 35.084 60.2185 36.833 62.5924C38.5455 60.206 39.5455 57.3289 39.5455 54.2317C39.5452 51.1348 38.5453 48.2575 36.8328 45.8711Z" fill="#C8562F"/>
<path d="M40.7754 66.3065C43.2965 67.9537 46.3527 68.9249 49.6532 68.9249C52.9536 68.9249 56.01 67.9537 58.5309 66.3067C55.9969 64.6939 52.9418 63.752 49.6532 63.752C46.3648 63.7517 43.3096 64.6937 40.7754 66.3065Z" fill="#C8562F"/>
<path d="M58.5309 42.1553C56.01 40.5083 52.9536 39.5371 49.6532 39.5371C46.3527 39.5371 43.2963 40.5083 40.7754 42.1555C43.3094 43.7681 46.3645 44.7101 49.6532 44.7101C52.9418 44.7101 55.9967 43.7681 58.5309 42.1553Z" fill="#C8562F"/>
<path d="M62.4764 62.5931C64.2252 60.2187 65.2567 57.3405 65.2567 54.232C65.2567 51.1234 64.2254 48.2452 62.4764 45.8711C60.7639 48.2578 59.7637 51.1348 59.7637 54.232C59.7637 57.3291 60.7639 60.2064 62.4764 62.5931Z" fill="#C8562F"/>
<path d="M49.6541 50.3125C47.3565 50.3125 45.4941 52.0665 45.4941 54.2303C45.4941 55.3123 45.9599 56.2917 46.7126 57.0006C46.9008 57.1778 47.1068 57.3382 47.3282 57.4789C47.9923 57.9013 48.7925 58.1481 49.6541 58.1481C50.2286 58.1481 50.7757 58.0384 51.2734 57.8402C51.7711 57.642 52.2194 57.3551 52.5957 57.0006C52.7839 56.8232 52.9542 56.6291 53.1038 56.4206C53.4029 56.0037 53.619 55.5299 53.7296 55.0197C53.7851 54.7647 53.8142 54.5006 53.8142 54.2301C53.8142 53.9596 53.7851 53.6957 53.7296 53.4404C53.6187 52.9302 53.4029 52.4565 53.1038 52.0396C52.356 50.9977 51.0901 50.3125 49.6541 50.3125Z" fill="#C8562F"/>
<path d="M90.2598 27.3203C90.9095 28.1882 91.5397 29.0699 92.1268 29.98C91.5395 29.0697 90.9095 28.1882 90.2598 27.3203Z" fill="#E8DFD4"/>
<path d="M28.1264 96.3871C25.9555 95.402 23.8722 94.2726 21.8906 93.0117C23.8719 94.2726 25.9552 95.402 28.1264 96.3871Z" fill="#E8DFD4"/>
<path d="M98.3061 44.8042C97.9762 43.2858 97.5679 41.7946 97.0859 40.334C97.5679 41.7949 97.9762 43.2863 98.3061 44.8042Z" fill="#E8DFD4"/>
<path d="M21.8904 93.0118C19.2484 91.3308 16.7875 89.4167 14.541 87.3008C16.7875 89.4167 19.2486 91.3308 21.8904 93.0118Z" fill="#E8DFD4"/>
<path d="M98.3066 44.8047C98.6372 46.3269 98.8898 47.8763 99.0594 49.4483C98.8898 47.8761 98.6375 46.3271 98.3066 44.8047Z" fill="#E8DFD4"/>
<path d="M36.8337 62.5918C33.9805 66.568 29.1499 69.1818 23.6712 69.1818C23.1113 69.1818 22.5586 69.1531 22.0137 69.1C23.4256 71.4225 25.1357 73.564 27.1315 75.4437L38.6234 64.6208C37.9627 63.9989 37.3677 63.3169 36.8337 62.5918Z" fill="#E8DFD4"/>
<path opacity="0.1" d="M84.7715 21.1602C86.7848 23.056 88.615 25.1217 90.2601 27.3196C88.615 25.1222 86.7848 23.0562 84.7715 21.1602Z" fill="black"/>
<path opacity="0.1" d="M71.1832 96.3867C68.2886 97.7003 65.2378 98.7574 62.0645 99.5261C65.2378 98.7574 68.2884 97.7005 71.1832 96.3867Z" fill="black"/>
<path d="M53.7293 55.0195C53.6184 55.5298 53.4026 56.0035 53.1035 56.4204C53.4024 56.0037 53.6184 55.5298 53.7293 55.0195Z" fill="#C8562F"/>
<path opacity="0.1" d="M53.7293 55.0195C53.6184 55.5298 53.4026 56.0035 53.1035 56.4204C53.4024 56.0037 53.6184 55.5298 53.7293 55.0195Z" fill="black"/>
<path d="M52.5958 57.002C52.2194 57.3562 51.7711 57.6431 51.2734 57.8415C51.7711 57.6433 52.2194 57.3564 52.5958 57.002Z" fill="#C8562F"/>
<path opacity="0.1" d="M52.5958 57.002C52.2194 57.3562 51.7711 57.6431 51.2734 57.8415C51.7711 57.6433 52.2194 57.3564 52.5958 57.002Z" fill="black"/>
<path d="M86.4089 0V6.80215C81.1545 6.80215 76.5685 9.52981 74.1176 13.5343C72.0195 12.4151 69.8285 11.4361 67.5449 10.6144C70.9982 4.58153 77.5895 0.419903 85.2392 0.035125C85.6291 0.0175625 86.019 0 86.4089 0Z" fill="#564A47"/>
<path d="M98.5293 33.5559V33.5176H94.1797C94.2572 33.6654 94.3424 33.8084 94.4185 33.9564C95.116 35.3194 95.7452 36.7194 96.3022 38.152C96.5807 38.8684 96.8411 39.5928 97.083 40.325C97.0845 40.3291 97.0852 40.3332 97.0864 40.3368C107.935 40.3428 116.759 48.6562 116.759 58.8748C116.759 69.0971 107.929 77.4133 97.0745 77.4133V77.3848H92.7968C92.1778 78.4057 91.5309 79.4099 90.8344 80.3811C89.8836 81.7067 88.8577 82.9797 87.7715 84.2036H97.0748V84.2319C111.921 84.2319 123.999 72.8571 123.999 58.8751C123.999 45.3522 112.702 34.27 98.5293 33.5559Z" fill="#564A47"/>
<path d="M50.5195 84.189V84.2018H64.4074C64.9298 82.9603 65.2913 81.6422 65.4434 80.2637C61.0226 82.6472 55.9433 84.0517 50.5195 84.189Z" fill="#564A47"/>
<path d="M65.459 77.3818C65.0301 72.772 62.3898 68.7598 58.5323 66.3049C56.0114 67.9519 52.955 68.9231 49.6545 68.9231C46.354 68.9231 43.2976 67.9519 40.7767 66.3047C36.555 68.9915 33.7793 73.5411 33.7793 78.7011C33.7793 79.2284 33.8098 79.7487 33.8665 80.2621C38.5235 82.7728 43.9038 84.2287 49.6545 84.2287C49.9461 84.2287 50.2287 84.1949 50.5186 84.1876C55.9423 84.0501 61.0217 82.6455 65.4425 80.2623C65.4989 79.7489 65.5297 79.2284 65.5297 78.7011C65.5297 78.2556 65.4994 77.8172 65.459 77.3818Z" fill="#564A47"/>
<path d="M70.9933 34.1332L72.1771 33.0183C70.6884 31.6163 69.0476 30.3596 67.2891 29.2559C68.2593 31.0566 69.5193 32.6922 70.9933 34.1332Z" fill="#E8DFD4"/>
<path d="M94.418 33.9551C95.1155 35.3181 95.7447 36.7181 96.3017 38.1507C95.7447 36.7181 95.1155 35.3183 94.418 33.9551Z" fill="#564A47"/>
<path d="M99.241 51.8287C99.2037 51.0243 99.1482 50.2374 99.0552 49.4507C98.9625 48.6638 98.8511 47.8769 98.7397 47.1074C98.6096 46.3207 98.4798 45.5514 98.3127 44.7994C97.9785 43.2956 97.5699 41.7919 97.0872 40.3406V40.323C96.8458 39.5886 96.5859 38.8715 96.3074 38.1548C95.7504 36.7209 95.119 35.3218 94.4135 33.9579C94.3392 33.8007 94.2651 33.6607 94.1721 33.5206C93.8565 32.9265 93.5223 32.3141 93.1881 31.7372C92.8538 31.1428 92.501 30.548 92.1297 29.9887C91.5356 29.062 90.9043 28.1876 90.2545 27.3133C89.8462 26.7714 89.4189 26.2292 88.992 25.7044C87.7665 24.2009 86.4483 22.7669 85.0187 21.403C84.9446 21.3154 84.8702 21.2456 84.7772 21.1582C81.6208 18.1856 78.0188 15.6327 74.1196 13.5343C72.0216 12.4151 69.8306 11.4361 67.547 10.6144C61.9954 8.58601 55.9611 7.4668 49.6483 7.4668C22.2248 7.46657 0 28.3974 0 54.2243C0 65.1532 3.97328 75.2251 10.6576 83.1814C11.846 84.6327 13.1642 86.014 14.5381 87.3079C14.6309 87.3955 14.7052 87.4655 14.798 87.5355C15.3366 88.0425 15.912 88.5322 16.469 89.0044C17.2305 89.6515 18.0101 90.2807 18.8085 90.8578C18.8272 90.8929 18.8456 90.9102 18.8642 90.9102C19.2355 91.2077 19.6257 91.4875 20.0156 91.7496C20.6283 92.1868 21.241 92.6065 21.8724 93.0086C23.8591 94.2679 25.9385 95.4044 28.1109 96.3836C31.0074 97.6951 34.0524 98.7616 37.2272 99.5309C41.2005 100.493 45.3595 101 49.6486 101C53.9377 101 58.0965 100.493 62.0513 99.5309C65.2264 98.7616 68.2714 97.6951 71.1679 96.3836C76.2366 94.0929 80.8228 90.9978 84.7591 87.3081H84.7775C85.2974 86.8186 85.8172 86.294 86.3001 85.787C86.8014 85.2624 87.2843 84.7376 87.767 84.1957C88.8624 82.9715 89.8837 81.7125 90.8306 80.3837C91.5361 79.4045 92.1861 78.408 92.7986 77.3762C93.3743 76.4492 93.9127 75.4876 94.414 74.5085C95.1195 73.1448 95.7509 71.7457 96.3079 70.3117C98.2575 65.2934 99.3158 59.8901 99.3158 54.2247C99.3151 53.4201 99.2967 52.6156 99.241 51.8287ZM53.1017 52.0385C53.3988 52.4582 53.6216 52.9304 53.733 53.4374C53.7887 53.6995 53.8074 53.9618 53.8074 54.2243C53.8074 54.5039 53.7887 54.7664 53.733 55.0285C53.6216 55.5355 53.3988 56.0079 53.1017 56.4273C52.9532 56.6372 52.7861 56.8295 52.6003 57.0044C52.2291 57.3543 51.7648 57.6515 51.2821 57.844C50.7808 58.036 50.2238 58.1412 49.6481 58.1412C48.7942 58.1412 47.9957 57.8964 47.3272 57.4768C47.2158 57.407 47.1044 57.3194 46.993 57.2145C46.9003 57.162 46.8075 57.0922 46.7145 57.0046C45.9533 56.2875 45.4891 55.3086 45.4891 54.2245C45.4891 52.0737 47.3643 50.3076 49.6481 50.3076C50.9293 50.3076 52.0617 50.8498 52.8418 51.7067C52.9348 51.8111 53.0089 51.9161 53.1017 52.0385ZM72.1701 33.0136L71.0003 34.1328C69.515 32.6988 68.2525 31.0553 67.2869 29.2541C69.051 30.3557 70.6847 31.615 72.1701 33.0136ZM33.8664 28.2049C34.7019 20.6685 41.4417 14.8104 49.6483 14.8104C57.855 14.8104 64.6134 20.6685 65.449 28.2049C65.5047 28.7119 65.5233 29.2365 65.5233 29.7611C65.5233 34.9195 62.7568 39.4659 58.5421 42.1586C55.9984 43.7673 52.9348 44.7118 49.6483 44.7118C46.3619 44.7118 43.3169 43.7675 40.7732 42.1586C36.5585 39.4659 33.7734 34.9195 33.7734 29.7611C33.7734 29.2367 33.8107 28.7119 33.8664 28.2049ZM7.7981 54.2243C7.7981 46.4956 14.0181 40.1478 22.0204 39.3612C22.559 39.3087 23.1158 39.2736 23.6728 39.2736C29.1501 39.2736 33.9775 41.8966 36.837 45.8659C38.5451 48.2615 39.5478 51.1292 39.5478 54.2243C39.5478 57.3367 38.5451 60.2044 36.837 62.6002C37.3754 63.3171 37.9695 63.9991 38.6195 64.6283L27.1264 75.4523C25.1397 73.564 23.4316 71.4305 22.0204 69.1049C14.0181 68.3181 7.7981 61.9529 7.7981 54.2243ZM65.449 80.261C65.3005 81.6423 64.929 82.9538 64.4092 84.1954C64.2608 84.5451 64.1123 84.8774 63.9266 85.2095C63.0724 86.8706 61.9029 88.3746 60.4917 89.6161C57.6508 92.1166 53.8447 93.6555 49.6486 93.6555C42.4632 93.6555 36.3916 89.1615 34.4423 82.9889C34.1638 82.1146 33.978 81.2053 33.8666 80.2786V80.261C33.8109 79.7537 33.7739 79.2294 33.7739 78.7048C33.7739 73.5464 36.559 69 40.7737 66.307C43.3174 64.6986 46.3624 63.7541 49.6488 63.7541C52.9353 63.7541 55.9987 64.6984 58.5426 66.307C62.3858 68.7553 65.0225 72.7771 65.4681 77.376C65.5054 77.8132 65.5238 78.2502 65.5238 78.705C65.5231 79.2294 65.5047 79.7537 65.449 80.261ZM88.3049 63.2295C85.7239 66.4468 81.7877 68.6677 77.2947 69.1047C76.7563 69.1572 76.1993 69.1747 75.6423 69.1747C70.165 69.1747 65.3375 66.5693 62.4783 62.6C60.7699 60.2042 59.7675 57.3367 59.7675 54.224C59.7675 51.1289 60.7702 48.2612 62.4783 45.8657C65.3375 41.8963 70.165 39.2734 75.6423 39.2734C76.1993 39.2734 76.7563 39.3085 77.2947 39.3609C81.7879 39.7982 85.7242 42.0015 88.3049 45.2188C90.3288 47.7369 91.517 50.8495 91.517 54.2243C91.517 57.599 90.3288 60.7114 88.3049 63.2295Z" fill="#E8DFD4"/>
<path opacity="0.1" d="M120.332 46.1276C119.274 44.414 118.012 42.8402 116.563 41.4238C116.266 41.1442 115.988 40.8643 115.672 40.5844C111.179 36.5102 105.163 33.8874 98.5346 33.5551H98.516V33.52H94.1712C93.8556 32.9258 93.5214 32.3134 93.1872 31.7366C92.8343 31.1422 92.4817 30.5474 92.1102 29.9881C91.5345 29.0614 90.9034 28.1869 90.2534 27.3127C89.845 26.7708 89.4178 26.2286 88.9909 25.7038C87.747 24.2003 86.4285 22.7838 85.0176 21.4023L52.8409 51.7058L46.9922 57.2138L15.0383 87.3073L14.7969 87.5349C15.3355 88.0419 15.9109 88.5316 16.4679 89.0037C17.2294 89.6508 18.009 90.2801 18.8075 90.8572C18.8261 90.8923 18.8445 90.9096 18.8632 90.9096C19.2344 91.207 19.6246 91.4869 20.0145 91.749C20.6272 92.1862 21.24 92.6059 21.8713 93.008C23.858 94.2673 25.9374 95.4038 28.1098 96.383C31.0063 97.6944 34.0513 98.761 37.2261 99.5303C41.1994 100.492 45.3584 100.999 49.6475 100.999C53.9366 100.999 58.0954 100.492 62.0502 99.5303C65.2253 98.761 68.2703 97.6944 71.1668 96.383C76.2355 94.0923 80.8217 90.9972 84.758 87.3075C85.2963 86.818 85.7977 86.2934 86.299 85.7864C86.8003 85.2618 87.2832 84.737 87.7659 84.195H97.068V84.2297C104.94 84.2297 112.051 81.0302 116.99 75.9238C117.566 75.3121 118.123 74.6823 118.643 74.0355C120.704 71.4299 122.245 68.4399 123.136 65.205C123.359 64.4008 123.544 63.5788 123.674 62.7394C123.823 61.9001 123.916 61.0434 123.953 60.1862C123.972 59.749 123.99 59.312 123.99 58.8747C123.99 54.2412 122.653 49.8695 120.332 46.1276ZM60.4908 89.6155C57.65 92.116 53.8438 93.6548 49.6477 93.6548C42.4624 93.6548 36.3908 89.1609 34.4414 82.9883C34.1443 82.114 33.9588 81.2046 33.8474 80.2606H33.866V80.2782C34.4417 80.5756 35.0358 80.8726 35.6298 81.1524C39.863 83.1107 44.6163 84.2297 49.648 84.2297C49.9451 84.2297 50.2236 84.195 50.5022 84.195H64.3902C64.2418 84.5447 64.0933 84.877 63.926 85.2091C63.0715 86.87 61.902 88.3564 60.4908 89.6155ZM77.2941 69.1043C77.9625 68.0027 78.5566 66.8661 79.0765 65.6947C79.5963 64.5055 80.0233 63.2989 80.3948 62.0574C81.1002 59.5569 81.4902 56.9342 81.4902 54.2237C81.4902 51.5307 81.1002 48.9077 80.3948 46.4074C80.0235 45.166 79.5963 43.9594 79.0765 42.7702C78.5566 41.5987 77.9625 40.4622 77.2941 39.3605C81.7873 39.7978 85.7235 42.0011 88.3043 45.2184C90.3096 47.7365 91.498 50.8491 91.498 54.2239C91.498 57.5986 90.3096 60.711 88.3043 63.2293C85.7235 66.4464 81.7873 68.6671 77.2941 69.1043ZM97.068 77.4102V77.3751H92.7789C93.3545 76.4482 93.9116 75.4866 94.4129 74.5074C95.1 73.1437 95.7311 71.7446 96.2881 70.3107C98.2377 65.2924 99.2961 59.889 99.2961 54.2237C99.2961 53.4194 99.2774 52.615 99.2403 51.8281C99.2031 51.0236 99.1476 50.2367 99.0546 49.4501C98.9618 48.6632 98.8504 47.8763 98.739 47.1067C98.609 46.3201 98.4605 45.5508 98.2934 44.7988C97.9592 43.295 97.5506 41.7912 97.068 40.3399H97.0864C102.508 40.3399 107.428 42.4208 110.975 45.7779C111.866 46.6175 112.664 47.544 113.388 48.5234C113.741 49.0131 114.075 49.5201 114.372 50.0447C114.521 50.307 114.669 50.5866 114.8 50.8491C115.078 51.3911 115.338 51.9506 115.561 52.5103C116.322 54.5035 116.749 56.637 116.749 58.875C116.749 69.0868 107.911 77.4102 97.068 77.4102Z" fill="#040000"/>
</svg>
